# xmcd
#
# Track frame offsets:
#	150
#	18655
#	40607
#	63202
#	84955
#	109667
#	129947
#	145155
#	165060
#	185327
#	204210
#
# Disc length: 2905 seconds
#
# Revision: 11
# Processed by: cddbd v1.5.2PL0 Copyright (c) Steve Scherf et al.
# Submitted via: EZCDAudioConverter 8.0.2.1
#
DISCID=7a0b570b
DTITLE=张宇 - 奇迹 创世纪精选 CD1[五大再版-5MCD2031]
DYEAR=2000
DGENRE=
TTITLE0=奇迹
TTITLE1=走路有风
TTITLE2=小小的太阳
TTITLE3=消息
TTITLE4=桂花酿
TTITLE5=猜心
TTITLE6=长头发
TTITLE7=情有独锺
TTITLE8=曲终人散
TTITLE9=一言难尽
TTITLE10=不过少个人来爱
EXTD=
EXTT0=
EXTT1=
EXTT2=
EXTT3=
EXTT4=
EXTT5=
EXTT6=
EXTT7=
EXTT8=
EXTT9=
EXTT10=
PLAYORDER=
